<?xml version="1.0" encoding="UTF-8"?>
<svg version="1.1" xmlns="http://www.w3.org/2000/svg" width="256" height="256">
<path d="M0 0 C6.6 0 13.2 0 20 0 C23.06895908 11.94405697 25.74670996 23.92612044 28.25 36 C28.61689989 37.75787255 28.98408592 39.51568541 29.3515625 41.2734375 C30.23766065 45.51494708 31.1199337 49.75723496 32 54 C33.49477109 48.72086651 34.98802314 43.44130635 36.47998047 38.16137695 C36.98576685 36.37220175 37.49193967 34.58313573 37.99853516 32.79418945 C41.08754048 21.88480134 44.10937162 10.96374049 47 0 C53.6 0 60.2 0 67 0 C70.375 10.125 70.375 10.125 71.3503418 14.15258789 C71.57034348 15.05284195 71.79034515 15.95309601 72.01701355 16.88063049 C72.24214127 17.81849899 72.46726898 18.75636749 72.69921875 19.72265625 C72.9391304 20.70874374 73.17904205 21.69483124 73.42622375 22.71080017 C74.18356539 25.82717713 74.93561722 28.94480201 75.6875 32.0625 C76.20342542 34.1895382 76.71969811 36.3164922 77.23632812 38.44335938 C78.49490074 43.62793985 79.74914549 48.81355233 81 54 C81.20338234 53.02947189 81.20338234 53.02947189 81.41087341 52.03933716 C82.81885747 45.32321377 84.23068418 38.60790652 85.64477539 31.89306641 C86.17246124 29.3848116 86.69915703 26.87634829 87.22485352 24.36767578 C87.97934785 20.76800535 88.73736491 17.16909245 89.49609375 13.5703125 C89.73154404 12.44319855 89.96699432 11.31608459 90.20957947 10.15481567 C90.42973221 9.11388763 90.64988495 8.07295959 90.87670898 7.00048828 C91.06990219 6.08115509 91.2630954 5.1618219 91.46214294 4.21463013 C92 2 92 2 93 0 C99.27 0 105.54 0 112 0 C108.51759552 15.37376464 104.44786897 30.58331079 100.36663818 45.80615234 C99.62043254 48.59207442 98.8768416 51.37869152 98.13330555 54.16532707 C97.41435858 56.85923567 96.69438397 59.55286866 95.97403526 62.24640274 C95.46579126 64.1469303 94.95796672 66.04757002 94.45014954 67.94821167 C94.1428038 69.09435944 93.83545807 70.2405072 93.51879883 71.42138672 C93.24884598 72.42934296 92.97889313 73.43729919 92.70075989 74.47579956 C92.18536969 76.33228163 91.60927438 78.17217685 91 80 C84.07 80 77.14 80 70 80 C69.61142822 78.4958252 69.22285645 76.99165039 68.82250977 75.44189453 C67.38418379 69.8765279 65.94291065 64.3119281 64.50073242 58.74755859 C63.87622575 56.33630958 63.25252522 53.92485163 62.62963867 51.51318359 C61.73566707 48.05251071 60.83882633 44.5925925 59.94140625 41.1328125 C59.6622084 40.04944611 59.38301056 38.96607971 59.09535217 37.84988403 C58.83515793 36.8489975 58.57496368 35.84811096 58.30688477 34.81689453 C58.07816177 33.93309113 57.84943878 33.04928772 57.61378479 32.13870239 C57.06303957 29.97347068 57.06303957 29.97347068 56 28 C55.83935562 28.6072139 55.67871124 29.2144278 55.51319885 29.84004211 C53.84352599 36.15042065 52.17251957 42.46044495 50.50073242 48.77026367 C49.87669088 51.12629248 49.25299136 53.48241189 48.62963867 55.83862305 C47.73445743 59.22208053 46.83805349 62.60521202 45.94140625 65.98828125 C45.6622084 67.04461258 45.38301056 68.10094391 45.09535217 69.18928528 C44.83515793 70.17007553 44.57496368 71.15086578 44.30688477 72.16137695 C44.07816177 73.02519485 43.84943878 73.88901276 43.61378479 74.77900696 C43.12857052 76.5347649 42.57603115 78.27190655 42 80 C34.74 80 27.48 80 20 80 C17.38709241 70.16129105 14.7783585 60.32150157 12.17697144 50.47974014 C10.96889988 45.90994966 9.75900005 41.34065962 8.54492188 36.77246094 C7.37351592 32.36455394 6.20691281 27.95540161 5.04364014 23.54534149 C4.5988068 21.8623701 4.15223969 20.17985599 3.70391846 18.49781036 C3.07667313 16.14327909 2.45559102 13.78720287 1.8359375 11.43066406 C1.64892273 10.73438904 1.46190796 10.03811401 1.26922607 9.32073975 C0.4162891 6.05170949 0 3.41412608 0 0 Z " fill="#FF6900" transform="translate(137,82)"/>
<path d="M0 0 C0.78737549 -0.01401855 1.57475098 -0.02803711 2.38598633 -0.04248047 C8.24238083 0.00516726 12.89818224 1.3088951 18.375 3.375 C18.375 8.985 18.375 14.595 18.375 20.375 C15.37479401 19.37493134 12.37337293 18.37439333 9.41015625 17.26953125 C6.08688703 16.2900864 3.27224651 16.07475412 -0.1875 16.0625 C-1.28191406 16.04574219 -2.37632813 16.02898437 -3.50390625 16.01171875 C-6.97135629 16.41531431 -8.84064393 17.30690944 -11.625 19.375 C-12.74831354 21.69651466 -12.7879571 22.7919757 -12.09765625 25.26171875 C-9.85617711 28.47827105 -6.58954749 29.65750855 -3.125 31.25 C-1.66812678 31.95467086 -0.21239406 32.66170451 1.2421875 33.37109375 C2.30518066 33.88518799 2.30518066 33.88518799 3.38964844 34.40966797 C11.56150695 38.38304826 17.25529027 42.0139655 21.375 50.375 C23.66582652 57.59883334 22.74219149 64.68472869 19.375 71.375 C15.95293707 77.26094824 9.56231622 80.18180016 3.16796875 82.00390625 C-1.01349351 82.55948515 -5.16127008 82.55938334 -9.375 82.5625 C-10.2309375 82.57474609 -11.086875 82.58699219 -11.96875 82.59960938 C-19.43832389 82.61658568 -25.90468129 81.73515936 -32.625 78.375 C-32.625 72.105 -32.625 65.835 -32.625 59.375 C-29.59765625 60.90494792 -26.5703125 62.43489583 -23.54296875 63.96484375 C-19.01912037 66.15106767 -15.68584487 66.53627574 -10.6875 66.5625 C-9.46160156 66.57667969 -8.23570313 66.59085937 -6.97265625 66.60546875 C-3.84466609 66.39012287 -2.12977246 66.21303447 0.375 64.375 C1.71750592 61.06294765 1.71750592 61.06294765 1.375 57.375 C-3.47676818 52.51559124 -9.02047769 50.15850327 -15.25976562 47.50195312 C-22.36806655 44.3405794 -28.71716388 40.10219748 -31.96484375 32.77734375 C-33.72474185 26.37298083 -33.77254986 19.09541732 -31.125 12.9375 C-27.57160355 7.06882434 -22.23332054 3.64359692 -15.8125 1.5 C-10.56020344 0.26589396 -5.37194088 0.0657597 0 0 Z " fill="#FF6900" transform="translate(110.625,80.625)"/>
<path d="M0 0 C1 1 1 1 1.11352539 2.76586914 C1.10828857 3.51473389 1.10305176 4.26359863 1.09765625 5.03515625 C1.09443359 5.84404297 1.09121094 6.65292969 1.08789062 7.48632812 C1.07532227 8.7615332 1.07532227 8.7615332 1.0625 10.0625 C1.05798828 10.91650391 1.05347656 11.77050781 1.04882812 12.65039062 C1.03700373 14.76695663 1.01906769 16.88348685 1 19 C0.17757812 18.71125 -0.64484375 18.4225 -1.4921875 18.125 C-10.63987191 15.08281396 -18.95083304 12.99008759 -28.1171875 16.9609375 C-34.35116924 20.40126767 -37.79327331 24.257224 -40 31 C-42.10431303 38.65204739 -40.98340201 45.76823352 -38 53 C-34.97773068 58.12285367 -30.77388164 60.88728851 -25.10546875 62.55859375 C-17.27674236 64.19986663 -10.41219848 62.5097444 -3 60 C-1.02 59.505 -1.02 59.505 1 59 C1 64.61 1 70.22 1 76 C-10.75725749 81.03882464 -26.58491323 82.68796926 -38.90234375 78.0390625 C-49.41746629 72.83045431 -56.00985808 66.07008604 -60 55 C-63.35406687 43.36103586 -61.95033422 28.93443197 -56.62890625 18.24609375 C-50.99661374 8.3186717 -42.4567396 1.8506185 -31.51171875 -1.3828125 C-21.21868227 -3.19182225 -10.04672041 -3.01556763 0 0 Z " fill="#FF6900" transform="translate(68,83)"/>
</svg>
